# xmcd
#
# Track frame offsets:
#	150
#	11853
#	21490
#	33385
#	45963
#	56077
#	66427
#	78311
#	89746
#	101411
#	112584
#	127754
#	139254
#	151667
#	164655
#	179483
#	190885
#	204004
#	220699
#	232468
#	245585
#	257845
#
# Disc length: 3557 seconds
# Revision: 0
# Processed by: cddbd v1.5.2PL0 Copyright (c) Steve Scherf et al.
# Submitted via: dBpowerAMP V12.0
#
DISCID=330de316
DTITLE=Various Artist - GetRight~TheRu-JacRecordsStory,Vol2,1954-6
DYEAR=1956
DGENRE=R&B
TTITLE0=BrendaJones - ItMustBeLove
TTITLE1=BrendaJones - I'mSoAfraid
TTITLE2=BrendaJones - SoAlone[Take3]
TTITLE3=BrendaJones - ItMustBeLove[backingTrack]
TTITLE4=Shirley,ofSoulSisters&Brother - WhatMore{CanAnyoneWant}
TTITLE5=Shirley,ofSoulSisters&Brother - YouDon'tReallyCare
TTITLE6=ButchCornells'Trio - GoosePimples
TTITLE7=ButchCornells'Trio - Here'TisNow
TTITLE8=ButchCornells'Trio - GoosePimples[alternateTake]
TTITLE9=HaroldHolt - WhereYouLeadMe
TTITLE10=HaroldHolt - I'mAStranger
TTITLE11=HaroldHolt - WhereYouLeadMe[alternateTake]
TTITLE12=ArthurConley - WholeLottaWoman[demo]
TTITLE13=BobbySax&HisHouseKeepers - GetRight
TTITLE14=BobbySax&HisHouseKeepers - SoulAtLast
TTITLE15=TheNoltones - ComeOnOver
TTITLE16=TheNoltones - C'estLaVie{That'sLife}
TTITLE17=WinfieldParker - ILoveYouJustTheSame
TTITLE18=WinfieldParker&TheShyndellsBand - ILoveYouJustTheSame[version1,Take5]
TTITLE19=TheMackMan&TheCap-Tans - LoveCanDoWonders
TTITLE20=TheMackMan&TheCap-Tans - ChickenWings
TTITLE21=ArthurConley - HidingOutInBlueShadows[demo]
EXTD=
EXTT0=
EXTT1=
EXTT2=
EXTT3=
EXTT4=
EXTT5=
EXTT6=
EXTT7=
EXTT8=
EXTT9=
EXTT10=
EXTT11=
EXTT12=
EXTT13=
EXTT14=
EXTT15=
EXTT16=
EXTT17=
EXTT18=
EXTT19=
EXTT20=
EXTT21=
PLAYORDER=
